<svg width="20" height="20" viewBox="0 0 20 20" fill="none" xmlns="http://www.w3.org/2000/svg">
<path d="M16.2513 10.4168C16.2513 9.26683 17.1846 8.3335 18.3346 8.3335V7.50016C18.3346 4.16683 17.5013 3.3335 14.168 3.3335H5.83464C2.5013 3.3335 1.66797 4.16683 1.66797 7.50016V7.91683C2.81797 7.91683 3.7513 8.85016 3.7513 10.0002C3.7513 11.1502 2.81797 12.0835 1.66797 12.0835V12.5002C1.66797 15.8335 2.5013 16.6668 5.83464 16.6668H14.168C17.5013 16.6668 18.3346 15.8335 18.3346 12.5002C17.1846 12.5002 16.2513 11.5668 16.2513 10.4168Z" stroke="#121418" stroke-width="1.5" stroke-linecap="round" stroke-linejoin="round"/>
<path d="M7.5 12.2915L12.5 7.2915" stroke="#121418" stroke-width="1.5" stroke-linecap="round" stroke-linejoin="round"/>
<path d="M12.4941 12.2917H12.5016" stroke="#121418" stroke-width="2" stroke-linecap="round" stroke-linejoin="round"/>
<path d="M7.49412 7.70817H7.50161" stroke="#121418" stroke-width="2" stroke-linecap="round" stroke-linejoin="round"/>
</svg>
