<svg width="24" height="24" viewBox="0 0 24 24" fill="none" xmlns="http://www.w3.org/2000/svg">
<path d="M14.7017 22.7497H9.30172C4.36172 22.7497 2.26172 20.6397 2.26172 15.7097V11.2197C2.26172 10.8097 2.60172 10.4697 3.01172 10.4697C3.42172 10.4697 3.76172 10.8097 3.76172 11.2197V15.7097C3.76172 19.7997 5.21172 21.2497 9.30172 21.2497H14.6917C18.7817 21.2497 20.2317 19.7997 20.2317 15.7097V11.2197C20.2317 10.8097 20.5717 10.4697 20.9817 10.4697C21.3917 10.4697 21.7317 10.8097 21.7317 11.2197V15.7097C21.7417 20.6397 19.6317 22.7497 14.7017 22.7497Z" fill="#121418"/>
<path d="M11.999 12.75C10.899 12.75 9.89902 12.32 9.18902 11.53C8.47902 10.74 8.14902 9.71 8.25902 8.61L8.92903 1.93C8.96903 1.55 9.28903 1.25 9.67903 1.25H14.349C14.739 1.25 15.059 1.54 15.099 1.93L15.769 8.61C15.879 9.71 15.549 10.74 14.839 11.53C14.099 12.32 13.099 12.75 11.999 12.75ZM10.349 2.75L9.74902 8.76C9.67902 9.43 9.87903 10.06 10.299 10.52C11.149 11.46 12.849 11.46 13.699 10.52C14.119 10.05 14.319 9.42 14.249 8.76L13.649 2.75H10.349Z" fill="#121418"/>
<path d="M18.308 12.75C16.278 12.75 14.468 11.11 14.258 9.09L13.558 2.08C13.538 1.87 13.608 1.66 13.748 1.5C13.888 1.34 14.088 1.25 14.308 1.25H17.358C20.298 1.25 21.668 2.48 22.078 5.5L22.358 8.28C22.478 9.46 22.118 10.58 21.348 11.43C20.578 12.28 19.498 12.75 18.308 12.75ZM15.138 2.75L15.758 8.94C15.888 10.19 17.048 11.25 18.308 11.25C19.068 11.25 19.748 10.96 20.238 10.43C20.718 9.9 20.938 9.19 20.868 8.43L20.588 5.68C20.278 3.42 19.548 2.75 17.358 2.75H15.138Z" fill="#121418"/>
<path d="M5.63904 12.75C4.44904 12.75 3.36904 12.28 2.59904 11.43C1.82904 10.58 1.46904 9.46 1.58904 8.28L1.85904 5.53C2.27904 2.48 3.64904 1.25 6.58905 1.25H9.63904C9.84904 1.25 10.049 1.34 10.199 1.5C10.349 1.66 10.409 1.87 10.389 2.08L9.68904 9.09C9.47904 11.11 7.66904 12.75 5.63904 12.75ZM6.58905 2.75C4.39904 2.75 3.66904 3.41 3.34904 5.7L3.07904 8.43C2.99904 9.19 3.22904 9.9 3.70904 10.43C4.18904 10.96 4.86904 11.25 5.63904 11.25C6.89904 11.25 8.06904 10.19 8.18904 8.94L8.80905 2.75H6.58905Z" fill="#121418"/>
<path d="M14.5 22.75H9.5C9.09 22.75 8.75 22.41 8.75 22V19.5C8.75 17.4 9.9 16.25 12 16.25C14.1 16.25 15.25 17.4 15.25 19.5V22C15.25 22.41 14.91 22.75 14.5 22.75ZM10.25 21.25H13.75V19.5C13.75 18.24 13.26 17.75 12 17.75C10.74 17.75 10.25 18.24 10.25 19.5V21.25Z" fill="#121418"/>
</svg>
