<svg width="16" height="16" viewBox="0 0 16 16" fill="none" xmlns="http://www.w3.org/2000/svg">
<path d="M2.21901 5.94C2.21901 5.81333 2.26568 5.68667 2.36568 5.58667C2.55901 5.39333 2.87901 5.39333 3.07234 5.58667L7.41901 9.93333C7.73901 10.2533 8.25901 10.2533 8.57901 9.93333L12.9257 5.58667C13.119 5.39333 13.439 5.39333 13.6323 5.58667C13.8257 5.78 13.8257 6.1 13.6323 6.29333L9.28568 10.64C8.94568 10.98 8.48568 11.1733 7.99901 11.1733C7.51234 11.1733 7.05234 10.9867 6.71234 10.64L2.36568 6.29333C2.27234 6.19333 2.21901 6.06667 2.21901 5.94Z" fill="#121418"/>
</svg>
