<svg width="12" height="12" viewBox="0 0 12 12" fill="none" xmlns="http://www.w3.org/2000/svg">
<path d="M4.45578 10.335C4.36078 10.335 4.26578 10.3 4.19078 10.225C4.04578 10.08 4.04578 9.83999 4.19078 9.69499L7.45078 6.43499C7.69078 6.19499 7.69078 5.80499 7.45078 5.56499L4.19078 2.30499C4.04578 2.15999 4.04578 1.91999 4.19078 1.77499C4.33578 1.62999 4.57578 1.62999 4.72078 1.77499L7.98078 5.03499C8.23578 5.28999 8.38078 5.63499 8.38078 5.99999C8.38078 6.365 8.24078 6.70999 7.98078 6.96499L4.72078 10.225C4.64578 10.295 4.55078 10.335 4.45578 10.335Z" fill="white"/>
</svg>
