<svg width="16" height="16" viewBox="0 0 16 16" fill="none" xmlns="http://www.w3.org/2000/svg">
<path d="M11.8587 15.1667H4.1387C2.31203 15.1667 0.832031 13.68 0.832031 11.8533V6.91333C0.832031 6.00666 1.39203 4.86666 2.11203 4.30666L5.70537 1.50666C6.78537 0.66666 8.51203 0.62666 9.63203 1.41333L13.752 4.29999C14.5454 4.85333 15.1654 6.03999 15.1654 7.00666V11.86C15.1654 13.68 13.6854 15.1667 11.8587 15.1667ZM6.3187 2.29333L2.72536 5.09333C2.25203 5.46666 1.83203 6.31333 1.83203 6.91333V11.8533C1.83203 13.1267 2.86536 14.1667 4.1387 14.1667H11.8587C13.132 14.1667 14.1654 13.1333 14.1654 11.86V7.00666C14.1654 6.36666 13.7054 5.47999 13.1787 5.11999L9.0587 2.23333C8.2987 1.69999 7.04536 1.72666 6.3187 2.29333Z" fill="white"/>
<path d="M8 12.5C7.72667 12.5 7.5 12.2733 7.5 12V10C7.5 9.72667 7.72667 9.5 8 9.5C8.27333 9.5 8.5 9.72667 8.5 10V12C8.5 12.2733 8.27333 12.5 8 12.5Z" fill="white"/>
</svg>
