<svg width="45" height="24" viewBox="0 0 45 24" fill="none" xmlns="http://www.w3.org/2000/svg">
<path d="M1.49812 11.2482L43.3281 11.2482C43.7381 11.2482 44.0781 11.5882 44.0781 11.9982C44.0781 12.4082 43.7381 12.7482 43.3281 12.7482L1.49812 12.7482C1.08812 12.7482 0.748123 12.4082 0.748123 11.9982C0.748123 11.5882 1.08812 11.2482 1.49812 11.2482Z" fill="#121418"/>
<path d="M37.7489 5.36257C37.9389 5.36257 38.1289 5.43257 38.2789 5.58257L44.3489 11.6526C44.6389 11.9426 44.6389 12.4226 44.3489 12.7126L38.2789 18.7826C37.9889 19.0726 37.5089 19.0726 37.2189 18.7826C36.9289 18.4926 36.9289 18.0126 37.2189 17.7226L42.7589 12.1826L37.2189 6.64257C36.9289 6.35257 36.9289 5.87257 37.2189 5.58257C37.3589 5.43257 37.5589 5.36257 37.7489 5.36257Z" fill="#121418"/>
</svg>
