<svg width="24" height="24" viewBox="0 0 24 24" fill="none" xmlns="http://www.w3.org/2000/svg">
<path d="M6.50063 13.9999C6.27763 13.9999 6.06363 13.9659 5.85063 13.9349C5.91963 14.1669 5.99063 14.4029 6.10463 14.6149C6.21863 14.9229 6.39663 15.1899 6.57363 15.4589C6.72163 15.7499 6.98263 15.9469 7.17463 16.1959C7.37563 16.4379 7.64963 16.5989 7.86663 16.7999C8.07963 17.0099 8.35863 17.1149 8.58063 17.2629C8.81263 17.3959 9.01463 17.5429 9.23063 17.6129L9.76963 17.8349L10.2436 18.0319L9.75863 19.9699L9.16163 19.8259C8.97063 19.7779 8.73763 19.7219 8.47263 19.6549C8.20163 19.6049 7.91263 19.4679 7.59063 19.3429C7.27263 19.2009 6.90463 19.1049 6.56263 18.8769C6.21863 18.6589 5.82163 18.4769 5.47163 18.1849C5.13263 17.8839 4.72363 17.6229 4.42163 17.2399C4.09163 16.8819 3.76563 16.5059 3.51263 16.0779C3.21963 15.6699 3.02063 15.2219 2.81063 14.7789C2.62063 14.3359 2.46763 13.8829 2.34263 13.4429C2.10563 12.5609 1.99963 11.7229 1.95863 11.0059C1.92463 10.2879 1.94463 9.69091 1.98663 9.25891C2.00163 9.05491 2.02963 8.85691 2.04963 8.71991L2.07463 8.55191L2.10063 8.55791C2.27849 7.72708 2.68794 6.96358 3.2816 6.35573C3.87526 5.74788 4.62887 5.32052 5.45527 5.12309C6.28167 4.92565 7.14708 4.96621 7.95139 5.24008C8.7557 5.51394 9.46604 6.00992 10.0002 6.67063C10.5344 7.33134 10.8707 8.12979 10.97 8.97361C11.0694 9.81744 10.9279 10.6722 10.5618 11.4389C10.1957 12.2056 9.61997 12.853 8.90128 13.3063C8.1826 13.7595 7.35029 14 6.50063 13.9999ZM17.5006 13.9999C17.2776 13.9999 17.0636 13.9659 16.8506 13.9349C16.9196 14.1669 16.9906 14.4029 17.1046 14.6149C17.2186 14.9229 17.3966 15.1899 17.5736 15.4589C17.7216 15.7499 17.9826 15.9469 18.1746 16.1959C18.3756 16.4379 18.6496 16.5989 18.8666 16.7999C19.0796 17.0099 19.3586 17.1149 19.5806 17.2629C19.8126 17.3959 20.0146 17.5429 20.2306 17.6129L20.7696 17.8349L21.2436 18.0319L20.7586 19.9699L20.1616 19.8259C19.9706 19.7779 19.7376 19.7219 19.4726 19.6549C19.2016 19.6049 18.9126 19.4679 18.5906 19.3429C18.2736 19.1999 17.9046 19.1049 17.5626 18.8759C17.2186 18.6579 16.8216 18.4759 16.4716 18.1839C16.1326 17.8829 15.7236 17.6219 15.4216 17.2399C15.0916 16.8819 14.7656 16.5059 14.5126 16.0779C14.2196 15.6699 14.0206 15.2219 13.8106 14.7789C13.6206 14.3359 13.4676 13.8829 13.3426 13.4429C13.1056 12.5609 12.9996 11.7229 12.9586 11.0059C12.9246 10.2879 12.9446 9.69091 12.9866 9.25891C13.0016 9.05491 13.0296 8.85691 13.0496 8.71991L13.0746 8.55191L13.1006 8.55791C13.2785 7.72708 13.6879 6.96358 14.2816 6.35573C14.8753 5.74788 15.6289 5.32052 16.4553 5.12309C17.2817 4.92565 18.1471 4.96621 18.9514 5.24008C19.7557 5.51394 20.466 6.00992 21.0002 6.67063C21.5344 7.33134 21.8707 8.12979 21.97 8.97361C22.0694 9.81744 21.9279 10.6722 21.5618 11.4389C21.1957 12.2056 20.62 12.853 19.9013 13.3063C19.1826 13.7595 18.3503 14 17.5006 13.9999Z" fill="#121418"/>
</svg>
