<svg width="24" height="24" viewBox="0 0 24 24" fill="none" xmlns="http://www.w3.org/2000/svg">
<rect x="0.5" y="0.5" width="23" height="23" fill="#121418" stroke="#121418"/>
<path d="M17 12.625H7C6.65833 12.625 6.375 12.3417 6.375 12C6.375 11.6583 6.65833 11.375 7 11.375H17C17.3417 11.375 17.625 11.6583 17.625 12C17.625 12.3417 17.3417 12.625 17 12.625Z" fill="white"/>
<path d="M12 17.625C11.6583 17.625 11.375 17.3417 11.375 17V7C11.375 6.65833 11.6583 6.375 12 6.375C12.3417 6.375 12.625 6.65833 12.625 7V17C12.625 17.3417 12.3417 17.625 12 17.625Z" fill="white"/>
</svg>
