<svg width="20" height="20" viewBox="0 0 20 20" fill="none" xmlns="http://www.w3.org/2000/svg">
<path d="M17.0177 10.1833C16.6761 10.1833 16.3927 9.89998 16.3927 9.55831V6.79169C16.3927 5.75835 15.5511 4.91669 14.5177 4.91669H2.98438C2.64271 4.91669 2.35938 4.63335 2.35938 4.29169C2.35938 3.95002 2.64271 3.66669 2.98438 3.66669H14.5177C16.2427 3.66669 17.6427 5.06669 17.6427 6.79169V9.55831C17.6427 9.90831 17.3594 10.1833 17.0177 10.1833Z" fill="#121418"/>
<path d="M5.61771 7.55831C5.45938 7.55831 5.30105 7.49995 5.17605 7.37495L2.54271 4.74164C2.42604 4.62498 2.35938 4.46662 2.35938 4.29995C2.35938 4.13329 2.42604 3.97498 2.54271 3.85831L5.17605 1.22495C5.41771 0.983285 5.81771 0.983285 6.05938 1.22495C6.30104 1.46662 6.30104 1.86667 6.05938 2.10833L3.86773 4.29995L6.05938 6.49162C6.30104 6.73329 6.30104 7.13329 6.05938 7.37495C5.93438 7.49162 5.77604 7.55831 5.61771 7.55831Z" fill="#121418"/>
<path d="M17.0177 16.325H5.48438C3.75937 16.325 2.35938 14.925 2.35938 13.2V10.4333C2.35938 10.0917 2.64271 9.80835 2.98438 9.80835C3.32604 9.80835 3.60938 10.0917 3.60938 10.4333V13.2C3.60938 14.2334 4.45104 15.075 5.48438 15.075H17.0177C17.3594 15.075 17.6427 15.3584 17.6427 15.7C17.6427 16.0417 17.3594 16.325 17.0177 16.325Z" fill="#121418"/>
<path d="M14.3846 18.9583C14.2263 18.9583 14.068 18.9 13.943 18.775C13.7013 18.5333 13.7013 18.1333 13.943 17.8916L16.1346 15.7L13.943 13.5083C13.7013 13.2667 13.7013 12.8667 13.943 12.625C14.1846 12.3833 14.5846 12.3833 14.8263 12.625L17.4596 15.2583C17.5763 15.375 17.643 15.5333 17.643 15.7C17.643 15.8667 17.5763 16.025 17.4596 16.1416L14.8263 18.775C14.7096 18.9 14.5513 18.9583 14.3846 18.9583Z" fill="#121418"/>
</svg>
