<svg width="24" height="24" viewBox="0 0 24 24" fill="none" xmlns="http://www.w3.org/2000/svg">
<path d="M14.4286 5.18C14.6186 5.18 14.8086 5.25 14.9586 5.4L21.0286 11.47C21.3186 11.76 21.3186 12.24 21.0286 12.53L14.9586 18.6C14.6686 18.89 14.1886 18.89 13.8986 18.6C13.6086 18.31 13.6086 17.83 13.8986 17.54L19.4386 12L13.8986 6.46C13.6086 6.17 13.6086 5.69 13.8986 5.4C14.0386 5.25 14.2386 5.18 14.4286 5.18Z" fill="white"/>
<path d="M3.49813 11.25H20.3281C20.7381 11.25 21.0781 11.59 21.0781 12C21.0781 12.41 20.7381 12.75 20.3281 12.75H3.49813C3.08813 12.75 2.74813 12.41 2.74813 12C2.74813 11.59 3.08813 11.25 3.49813 11.25Z" fill="white"/>
</svg>
