<svg width="25" height="102" viewBox="0 0 25 102" fill="none" xmlns="http://www.w3.org/2000/svg">
<g opacity="0.8">
<path d="M12.7914 3.50002L12.7914 100.33C12.7914 100.74 12.4509 101.08 12.0402 101.08C11.6296 101.08 11.2891 100.74 11.2891 100.33L11.2891 3.50002C11.2891 3.09001 11.6296 2.75002 12.0402 2.75002C12.4509 2.75002 12.7914 3.09001 12.7914 3.50002Z" fill="#121418"/>
<path d="M18.6863 94.7475C18.6863 94.9375 18.6162 95.1275 18.466 95.2775L12.3864 101.348C12.096 101.638 11.6152 101.638 11.3247 101.348L5.24519 95.2775C4.95473 94.9875 4.95473 94.5075 5.24519 94.2175C5.53564 93.9275 6.0164 93.9275 6.30686 94.2175L11.8556 99.7575L17.4043 94.2175C17.6948 93.9275 18.1755 93.9275 18.466 94.2175C18.6162 94.3575 18.6863 94.5575 18.6863 94.7475Z" fill="#121418"/>
</g>
</svg>
