<svg width="102" height="24" viewBox="0 0 102 24" fill="none" xmlns="http://www.w3.org/2000/svg">
<path d="M3.49812 11.2481L100.328 11.248C100.738 11.248 101.078 11.588 101.078 11.998C101.078 12.408 100.738 12.748 100.328 12.748L3.49812 12.7481C3.08812 12.7481 2.74812 12.4081 2.74812 11.9981C2.74812 11.5881 3.08812 11.2481 3.49812 11.2481Z" fill="#121418"/>
<path d="M94.7489 5.36251C94.9389 5.36251 95.1289 5.43251 95.2789 5.5825L101.349 11.6525C101.639 11.9425 101.639 12.4225 101.349 12.7125L95.2789 18.7825C94.9889 19.0725 94.5089 19.0725 94.2189 18.7825C93.9289 18.4925 93.9289 18.0125 94.2189 17.7225L99.7589 12.1825L94.2189 6.6425C93.9289 6.3525 93.9289 5.8725 94.2189 5.5825C94.3589 5.43251 94.5589 5.36251 94.7489 5.36251Z" fill="#121418"/>
</svg>
