<svg width="146" height="40" viewBox="0 0 146 40" fill="none" xmlns="http://www.w3.org/2000/svg">
<path d="M57.168 12.2C58.624 12.2 59.888 12.44 60.96 12.92C62.048 13.4 62.88 14.088 63.456 14.984C64.032 15.88 64.32 16.944 64.32 18.176C64.32 19.392 64.032 20.456 63.456 21.368C62.88 22.264 62.048 22.952 60.96 23.432C59.888 23.912 58.624 24.152 57.168 24.152H53.376V29H50.256V12.2H57.168ZM57.024 21.512C58.384 21.512 59.416 21.224 60.12 20.648C60.824 20.072 61.176 19.248 61.176 18.176C61.176 17.104 60.824 16.28 60.12 15.704C59.416 15.128 58.384 14.84 57.024 14.84H53.376V21.512H57.024ZM73.1968 26.624C74.5888 26.624 75.7488 26.16 76.6768 25.232L78.2608 27.08C77.7008 27.768 76.9808 28.288 76.1008 28.64C75.2208 28.992 74.2288 29.168 73.1248 29.168C71.7168 29.168 70.4768 28.888 69.4048 28.328C68.3328 27.768 67.5008 26.992 66.9088 26C66.3328 24.992 66.0448 23.856 66.0448 22.592C66.0448 21.344 66.3248 20.224 66.8848 19.232C67.4608 18.224 68.2448 17.44 69.2368 16.88C70.2448 16.32 71.3808 16.04 72.6448 16.04C73.8448 16.04 74.9328 16.304 75.9088 16.832C76.9008 17.344 77.6848 18.088 78.2608 19.064C78.8368 20.024 79.1248 21.152 79.1248 22.448L69.3088 24.368C69.6128 25.104 70.1008 25.664 70.7728 26.048C71.4448 26.432 72.2528 26.624 73.1968 26.624ZM72.6448 18.44C71.5408 18.44 70.6448 18.8 69.9568 19.52C69.2848 20.24 68.9488 21.208 68.9488 22.424V22.448L76.1968 21.056C75.9888 20.272 75.5648 19.64 74.9248 19.16C74.3008 18.68 73.5408 18.44 72.6448 18.44ZM73.7968 11.144H77.3248L73.1488 14.432H70.5568L73.7968 11.144ZM94.5351 16.184V29H91.6791V27.344C91.1831 27.952 90.5671 28.408 89.8311 28.712C89.1111 29.016 88.3111 29.168 87.4311 29.168C86.1831 29.168 85.0631 28.896 84.0711 28.352C83.0951 27.808 82.3271 27.04 81.7671 26.048C81.2231 25.056 80.9511 23.904 80.9511 22.592C80.9511 21.28 81.2231 20.136 81.7671 19.16C82.3271 18.168 83.0951 17.4 84.0711 16.856C85.0631 16.312 86.1831 16.04 87.4311 16.04C88.2631 16.04 89.0231 16.184 89.7111 16.472C90.4151 16.76 91.0231 17.184 91.5351 17.744V16.184H94.5351ZM87.7671 26.6C88.8711 26.6 89.7831 26.232 90.5031 25.496C91.2231 24.76 91.5831 23.792 91.5831 22.592C91.5831 21.392 91.2231 20.424 90.5031 19.688C89.7831 18.952 88.8711 18.584 87.7671 18.584C86.6631 18.584 85.7511 18.952 85.0311 19.688C84.3271 20.424 83.9751 21.392 83.9751 22.592C83.9751 23.792 84.3271 24.76 85.0311 25.496C85.7511 26.232 86.6631 26.6 87.7671 26.6ZM101.316 18.056C102.18 16.712 103.7 16.04 105.876 16.04V18.896C105.62 18.848 105.388 18.824 105.18 18.824C104.012 18.824 103.1 19.168 102.444 19.856C101.788 20.528 101.46 21.504 101.46 22.784V29H98.4602V16.184H101.316V18.056ZM112.645 29.168C111.317 29.168 110.277 28.808 109.525 28.088C108.789 27.352 108.421 26.32 108.421 24.992V11.192H111.421V24.776C111.421 26.056 112.021 26.696 113.221 26.696C113.621 26.696 113.981 26.616 114.301 26.456L114.445 28.856C113.885 29.064 113.285 29.168 112.645 29.168ZM122.345 26.624C123.737 26.624 124.897 26.16 125.825 25.232L127.409 27.08C126.849 27.768 126.129 28.288 125.249 28.64C124.369 28.992 123.377 29.168 122.273 29.168C120.865 29.168 119.625 28.888 118.553 28.328C117.481 27.768 116.649 26.992 116.057 26C115.481 24.992 115.193 23.856 115.193 22.592C115.193 21.344 115.473 20.224 116.033 19.232C116.609 18.224 117.393 17.44 118.385 16.88C119.393 16.32 120.529 16.04 121.793 16.04C122.993 16.04 124.081 16.304 125.057 16.832C126.049 17.344 126.833 18.088 127.409 19.064C127.985 20.024 128.273 21.152 128.273 22.448L118.457 24.368C118.761 25.104 119.249 25.664 119.921 26.048C120.593 26.432 121.401 26.624 122.345 26.624ZM121.793 18.44C120.689 18.44 119.793 18.8 119.105 19.52C118.433 20.24 118.097 21.208 118.097 22.424V22.448L125.345 21.056C125.137 20.272 124.713 19.64 124.073 19.16C123.449 18.68 122.689 18.44 121.793 18.44ZM122.945 11.144H126.473L122.297 14.432H119.705L122.945 11.144ZM143.564 16.184V29H140.708V27.368C140.228 27.944 139.628 28.392 138.908 28.712C138.188 29.016 137.412 29.168 136.58 29.168C134.868 29.168 133.516 28.696 132.524 27.752C131.548 26.792 131.06 25.376 131.06 23.504V16.184H134.06V23.096C134.06 24.248 134.316 25.112 134.828 25.688C135.356 26.248 136.1 26.528 137.06 26.528C138.132 26.528 138.98 26.2 139.604 25.544C140.244 24.872 140.564 23.912 140.564 22.664V16.184H143.564Z" fill="#121418"/>
<rect width="40" height="40" rx="20" fill="#121418"/>
<g clip-path="url(#clip0_2069_11280)">
<path d="M13.9028 14.1492C14.4226 13.6512 14.8362 13.0531 15.1186 12.3909C15.401 11.7287 15.5463 11.0161 15.5458 10.2962V7.7696C15.546 7.72068 15.5655 7.6738 15.6001 7.63921C15.6346 7.60462 15.6815 7.58513 15.7304 7.58499H23.8809C23.9298 7.58513 23.9767 7.60462 24.0113 7.63921C24.0459 7.6738 24.0654 7.72068 24.0655 7.7696V10.2962C24.0651 11.0161 24.2104 11.7287 24.4928 12.3909C24.7751 13.0531 25.1887 13.6512 25.7086 14.1492C24.6493 17.8529 22.3293 20.2636 19.8057 20.2636C17.282 20.2636 14.9627 17.8541 13.9028 14.1492ZM12.6887 14.1672C12.755 14.1482 12.8256 14.1501 12.8908 14.1725C12.956 14.1949 13.0127 14.2369 13.0532 14.2927C13.0759 14.3243 13.0933 14.3602 13.104 14.3972C14.2684 18.4688 16.8991 21.1 19.8057 21.1C22.7123 21.1 25.3429 18.4688 26.5068 14.399C26.5176 14.361 26.535 14.3252 26.5581 14.2932C26.5986 14.2375 26.6552 14.1956 26.7203 14.1731C26.7853 14.1505 26.8557 14.1485 26.922 14.1671C27.0696 14.209 27.1658 14.344 27.1658 14.4898C27.1658 14.5209 27.1614 14.5519 27.1526 14.5818C27.1395 14.6272 27.1263 14.6726 27.112 14.7204C25.8442 19.0036 22.9758 21.771 19.8057 21.771C16.6356 21.771 13.7672 19.0036 12.4988 14.7174C12.485 14.6726 12.4719 14.6272 12.4588 14.5818C12.408 14.4044 12.5113 14.2179 12.6887 14.1672ZM25.0137 20.5062C25.4612 20.5062 25.825 20.87 25.825 21.3175C25.825 21.765 25.4612 22.1289 25.0137 22.1289C24.5662 22.1289 24.2024 21.765 24.2024 21.3175C24.2024 20.87 24.5662 20.5062 25.0137 20.5062ZM21.1733 23.975C21.1733 24.729 20.5597 25.3426 19.8057 25.3426C19.0517 25.3426 18.4381 24.729 18.4381 23.975C18.4381 23.221 19.0517 22.6074 19.8057 22.6074C20.5597 22.6074 21.1733 23.221 21.1733 23.975ZM15.409 21.3175C15.409 21.765 15.0451 22.1289 14.5977 22.1289C14.1502 22.1289 13.7863 21.765 13.7863 21.3175C13.7863 20.87 14.1502 20.5062 14.5977 20.5062C15.0452 20.5062 15.409 20.87 15.409 21.3175ZM29.9959 16.0677L28.749 23.9004C28.1157 27.8753 24.8859 30.9868 20.8954 31.4672C20.1715 31.5538 19.4398 31.5538 18.7159 31.4672C16.9444 31.2539 15.2889 30.5273 13.9273 29.3647C12.2886 27.9655 11.202 26.0282 10.8624 23.9004L9.61547 16.0677C9.60823 16.021 9.61911 15.9733 9.64588 15.9343C9.67264 15.8953 9.71328 15.868 9.75948 15.858L11.3421 15.5139C11.5067 15.4776 11.6696 15.4339 11.8302 15.383C12.3889 17.0929 13.1972 18.5633 14.1789 19.7235C13.4727 19.9094 12.9499 20.5534 12.9499 21.3175C12.9499 22.2263 13.6889 22.9654 14.5977 22.9654C15.4329 22.9654 16.1248 22.341 16.2305 21.5344C16.8716 21.9389 17.5497 22.2352 18.2529 22.4127C17.8508 22.8118 17.6017 23.3651 17.6017 23.9751C17.6017 25.1903 18.5905 26.1791 19.8057 26.1791C21.021 26.1791 22.0098 25.1903 22.0098 23.9751C22.0098 23.3651 21.7606 22.8118 21.3586 22.4127C22.0618 22.2359 22.7399 21.9389 23.381 21.5344C23.4867 22.341 24.1786 22.9654 25.0138 22.9654C25.9225 22.9654 26.6616 22.2263 26.6616 21.3175C26.6616 20.5534 26.1394 19.9094 25.4332 19.7241C26.4149 18.5638 27.2232 17.0929 27.7824 15.3836C27.9426 15.4346 28.1051 15.4781 28.2693 15.5138L29.852 15.8579C29.8982 15.868 29.9388 15.8953 29.9655 15.9343C29.9923 15.9733 30.0031 16.021 29.9959 16.0677Z" fill="white"/>
</g>
<defs>
<clipPath id="clip0_2069_11280">
<rect width="24" height="24" fill="white" transform="translate(8 8)"/>
</clipPath>
</defs>
</svg>
