<svg width="104" height="104" viewBox="0 0 104 104" fill="none" xmlns="http://www.w3.org/2000/svg">
<path d="M51.9988 10.834C44.9613 10.8356 38.0417 12.6412 31.9007 16.0786C25.7598 19.516 20.6026 24.4702 16.9216 30.4683C13.2406 36.4664 11.1588 43.308 10.8748 50.3397C10.5909 57.3715 12.1144 64.3587 15.2998 70.634L10.8841 90.5327C10.801 90.891 10.8106 91.2646 10.9118 91.6182C11.013 91.9719 11.2026 92.2939 11.4627 92.554C11.7228 92.8141 12.0449 93.0037 12.3985 93.105C12.7522 93.2062 13.1258 93.2157 13.4841 93.1327L33.3654 88.6997C38.9126 91.5189 45.0267 93.0439 51.248 93.1601C57.4694 93.2764 63.6362 91.9807 69.2847 89.3706C74.9333 86.7606 79.9167 82.904 83.8603 78.0908C87.8039 73.2775 90.605 67.633 92.0532 61.5814C93.5014 55.5298 93.5588 49.2286 92.2213 43.1517C90.8837 37.0747 88.186 31.3799 84.3308 26.4956C80.4756 21.6113 75.5634 17.6644 69.9634 14.9518C64.3633 12.2391 58.2212 10.8312 51.9988 10.834ZM51.9988 88.834C45.9533 88.831 40.0011 87.3429 34.6654 84.5007C34.3508 84.3325 33.9995 84.2447 33.6428 84.245C33.4853 84.2449 33.3284 84.2624 33.1748 84.297L15.8414 88.145L19.6894 70.8117C19.8026 70.312 19.735 69.7885 19.4988 69.334C15.7081 62.2264 14.3518 54.0721 15.6379 46.1202C16.9239 38.1683 20.7812 30.8572 26.619 25.3068C32.4568 19.7564 39.9532 16.2727 47.9599 15.3894C55.9666 14.5061 64.042 16.2719 70.9494 20.4163C77.8567 24.5607 83.215 30.8552 86.2034 38.3356C89.1919 45.8159 89.6458 54.0697 87.4956 61.8327C85.3454 69.5957 80.7096 76.4397 74.2984 81.3165C67.8872 86.1933 60.054 88.834 51.9988 88.834Z" fill="#DCB996"/>
<path d="M52.0428 36.9245C49.1828 34.7489 45.6029 33.7416 42.028 34.1065C38.4532 34.4713 35.1506 36.1812 32.7892 38.8897C30.4277 41.5982 29.1838 45.1029 29.3094 48.6941C29.4351 52.2853 30.9208 55.6946 33.4658 58.2315L50.4351 75.2008C50.8414 75.607 51.3924 75.8352 51.9669 75.8352C52.5414 75.8352 53.0924 75.607 53.4988 75.2008L69.3891 59.3105C70.9394 58.0646 72.21 56.5062 73.118 54.7366C74.026 52.967 74.551 51.0261 74.6589 49.0401C74.7669 47.0541 74.4552 45.0677 73.7444 43.2101C73.0335 41.3526 71.9393 39.6656 70.5331 38.2591C68.123 35.8568 64.93 34.4004 61.536 34.1555C58.1419 33.9105 54.7728 34.8932 52.0428 36.9245ZM67.4694 55.2285C67.1942 55.4978 66.9049 55.7524 66.6028 55.9911C66.5363 56.0426 66.4727 56.0975 66.4121 56.1558L51.9691 70.6031L36.5294 55.1635C35.1542 53.7912 34.217 52.0418 33.8364 50.1367C33.4557 48.2317 33.6487 46.2565 34.391 44.4611C35.1333 42.6658 36.3914 41.1309 38.0062 40.0508C39.6211 38.9708 41.52 38.394 43.4628 38.3935C44.7717 38.3929 46.0678 38.6515 47.2764 39.1543C48.4849 39.657 49.582 40.394 50.5044 41.3228C50.9107 41.729 51.4617 41.9572 52.0363 41.9572C52.6108 41.9572 53.1618 41.729 53.5681 41.3228C55.4121 39.4788 57.9131 38.4428 60.5209 38.4428C63.1287 38.4428 65.6297 39.4788 67.4738 41.3228C69.3178 43.1668 70.3537 45.6678 70.3537 48.2756C70.3537 50.8834 69.3178 53.3844 67.4738 55.2285H67.4694Z" fill="#DCB996"/>
</svg>
