<svg width="104" height="104" viewBox="0 0 104 104" fill="none" xmlns="http://www.w3.org/2000/svg">
<path d="M91.5701 42.5265C89.9893 40.8937 89.2613 38.6681 89.5837 36.4113L89.8749 34.3521C90.7485 28.1849 86.6301 22.5065 80.4941 21.4353L78.4453 21.0713C76.2093 20.6761 74.3061 19.3033 73.2453 17.2961L72.2677 15.4657C69.3453 9.96406 62.6789 7.79046 57.0837 10.5361L55.2117 11.4409C53.1733 12.4393 50.8229 12.4393 48.7845 11.4409L46.9229 10.5257C41.3277 7.79046 34.6613 9.95366 31.7389 15.4553L30.7613 17.2857C29.6901 19.2929 27.7973 20.6761 25.5613 21.0609L23.5125 21.4249C17.3765 22.4961 13.2581 28.1745 14.1317 34.3417L14.4229 36.4009C14.7453 38.6577 14.0173 40.8833 12.4365 42.5161L10.9909 44.0033C6.65408 48.4753 6.65408 55.4953 10.9909 59.9673L12.4365 61.4649C14.0173 63.0977 14.7453 65.3233 14.4229 67.5801L14.1317 69.6393C13.2581 75.8065 17.3765 81.4849 23.5125 82.5561L25.5613 82.9201C27.7973 83.3153 29.7005 84.6881 30.7613 86.6953L31.7389 88.5257C33.8085 92.4153 37.7397 94.6409 41.8581 94.6409C43.5533 94.6409 45.2901 94.2561 46.9229 93.4553L48.7845 92.5609C50.8229 91.5625 53.1733 91.5625 55.2117 92.5609L57.0733 93.4761C62.6685 96.2113 69.3349 94.0481 72.2573 88.5465L73.2349 86.7161C74.3061 84.7089 76.1989 83.3257 78.4349 82.9409L80.4837 82.5769C86.6197 81.5057 90.7381 75.8273 89.8645 69.6601L89.5733 67.6009C89.2509 65.3441 89.9789 63.1185 91.5597 61.4857L93.0053 59.9985C97.3421 55.5265 97.3421 48.5065 93.0053 44.0345L91.5701 42.5265ZM90.0205 57.0969L88.5749 58.5841C86.0997 61.1425 84.9557 64.6473 85.4549 68.1729L85.7461 70.2321C86.3077 74.1633 83.6765 77.7825 79.7661 78.4689L77.7173 78.8329C74.2021 79.4465 71.2277 81.6097 69.5637 84.7609L68.5861 86.5913C66.7245 90.0961 62.4709 91.4897 58.9037 89.7425L57.0421 88.8273C53.8389 87.2569 50.1573 87.2569 46.9541 88.8273L45.0925 89.7425C41.5253 91.4897 37.2717 90.1065 35.4101 86.5913L34.4325 84.7609C32.7581 81.6097 29.7837 79.4465 26.2789 78.8329L24.2301 78.4689C20.3197 77.7825 17.6885 74.1633 18.2501 70.2321L18.5413 68.1729C19.0405 64.6369 17.9069 61.1425 15.4213 58.5841L13.9757 57.0865C11.2093 54.2265 11.2093 49.7649 13.9757 46.9049L15.4213 45.4177C17.8965 42.8593 19.0405 39.3545 18.5413 35.8289L18.2501 33.7697C17.6885 29.8385 20.3197 26.2193 24.2301 25.5329L26.2789 25.1689C29.7941 24.5553 32.7685 22.3921 34.4325 19.2409L35.4101 17.4105C36.7309 14.9249 39.2373 13.5105 41.8581 13.5105C42.9397 13.5105 44.0421 13.7497 45.0925 14.2593L46.9541 15.1745C50.1573 16.7449 53.8389 16.7449 57.0421 15.1745L58.9037 14.2593C62.4709 12.5121 66.7245 13.8953 68.5861 17.4105L69.5637 19.2409C71.2381 22.3921 74.2125 24.5553 77.7173 25.1689L79.7661 25.5329C83.6765 26.2193 86.3077 29.8385 85.7461 33.7697L85.4549 35.8289C84.9557 39.3649 86.0893 42.8593 88.5749 45.4177L90.0205 46.9153C92.7869 49.7649 92.7869 54.2369 90.0205 57.0969Z" fill="#DCB996"/>
<path d="M68.545 35.4541C67.7338 34.6429 66.413 34.6429 65.6017 35.4541L35.4521 65.6037C34.641 66.4149 34.641 67.7357 35.4521 68.5469C35.8577 68.9525 36.3881 69.1605 36.9185 69.1605C37.4489 69.1605 37.9793 68.9525 38.3849 68.5469L68.5345 38.3973C69.3561 37.5861 69.3562 36.2653 68.545 35.4541Z" fill="#DCB996"/>
<path d="M43.5431 46.4984C45.8103 46.4984 48.0671 45.6352 49.7935 43.9088C53.2359 40.4664 53.2359 34.8504 49.7935 31.408C46.3511 27.9656 40.7351 27.9656 37.2927 31.408C35.6183 33.072 34.7031 35.2976 34.7031 37.6584C34.7031 40.0192 35.6183 42.2448 37.2927 43.9088C39.0191 45.6352 41.2759 46.4984 43.5431 46.4984ZM40.2359 34.3512C41.1511 33.436 42.3471 32.9784 43.5431 32.9784C44.7391 32.9784 45.9351 33.436 46.8503 34.3512C48.6703 36.1712 48.6703 39.1456 46.8503 40.9656C45.0199 42.7856 42.0559 42.7856 40.2359 40.9656C39.3519 40.0816 38.8631 38.9064 38.8631 37.6584C38.8631 36.4104 39.3519 35.2352 40.2359 34.3512Z" fill="#DCB996"/>
<path d="M54.2029 60.0916C50.7605 63.534 50.7605 69.15 54.2029 72.5924C55.9293 74.3188 58.1861 75.182 60.4533 75.182C62.7205 75.182 64.9773 74.3188 66.7037 72.5924C68.3781 70.918 69.2933 68.7028 69.2933 66.342C69.2933 63.9812 68.3781 61.7556 66.7037 60.0916C63.2613 56.6388 57.6557 56.6388 54.2029 60.0916ZM63.7605 69.6492C61.9405 71.4692 58.9661 71.4692 57.1461 69.6492C55.3261 67.8292 55.3261 64.8548 57.1461 63.0348C58.0613 62.1196 59.2573 61.662 60.4533 61.662C61.6493 61.662 62.8453 62.1196 63.7605 63.0348C64.6445 63.9188 65.1333 65.094 65.1333 66.342C65.1333 67.59 64.6445 68.7652 63.7605 69.6492Z" fill="#DCB996"/>
</svg>
