<svg width="106" height="104" viewBox="0 0 106 104" fill="none" xmlns="http://www.w3.org/2000/svg">
<path d="M91.5105 91.2384H87.8304V38.007C87.8304 35.5293 85.8068 33.5137 83.3198 33.5137H75.094C72.6069 33.5137 70.5835 35.5295 70.5835 38.007V91.2384H61.2389V62.125C61.2389 59.6473 59.2155 57.6316 56.7283 57.6316H48.5025C46.0154 57.6316 43.992 59.6475 43.992 62.125V91.2384H34.6474V76.1608C34.6474 73.6831 32.6238 71.6674 30.1368 71.6674H21.9109C19.4237 71.6674 17.4003 73.6833 17.4003 76.1608V91.2384H13.5217C12.5949 91.2384 11.8438 91.9868 11.8438 92.9099C11.8438 93.8331 12.5949 94.5814 13.5217 94.5814H91.5105C92.4372 94.5814 93.1884 93.8331 93.1884 92.9099C93.1884 91.9868 92.4372 91.2384 91.5105 91.2384ZM31.2912 91.2384H20.756V76.1608C20.756 75.5264 21.2739 75.0104 21.9107 75.0104H30.1365C30.7733 75.0104 31.2912 75.5264 31.2912 76.1608V91.2384ZM57.8829 91.2384H47.3476V62.125C47.3476 61.4907 47.8656 60.9747 48.5024 60.9747H56.7282C57.3648 60.9747 57.8829 61.4907 57.8829 62.125V91.2384ZM84.4746 91.2384H73.9393V38.007C73.9393 37.3727 74.4573 36.8567 75.094 36.8567H83.3198C83.9566 36.8567 84.4746 37.3727 84.4746 38.007V91.2384Z" fill="#DCB996"/>
<path d="M87.5917 10.9933C87.6174 10.476 87.4414 9.95004 87.0594 9.55501C86.6774 9.15998 86.1687 8.97782 85.6685 9.00455C85.639 9.00322 85.6098 9 85.5798 9H74.4897C73.4773 9 72.6567 9.84863 72.6567 10.8955C72.6567 11.9424 73.4773 12.7911 74.4897 12.7911H81.3375L63.2164 31.5299L56.3827 24.4634C56.039 24.1079 55.5727 23.9082 55.0866 23.9082C54.6004 23.9082 54.1341 24.1079 53.7904 24.4634L20.8376 58.5393C20.1218 59.2795 20.1218 60.4798 20.8376 61.2202C21.1956 61.59 21.6647 61.775 22.1338 61.775C22.6029 61.775 23.0721 61.59 23.43 61.2198L55.0866 28.4842L61.9202 35.5507C62.636 36.2909 63.7967 36.2909 64.5127 35.5507L83.93 15.4719V21.8807C83.93 22.9276 84.7507 23.7762 85.7631 23.7762C86.7755 23.7762 87.5961 22.9276 87.5961 21.8807V11.0851C87.5961 11.0542 87.593 11.024 87.5917 10.9933Z" fill="#DCB996"/>
<path d="M22.256 61.3704C23.1827 61.3704 23.9339 60.622 23.9339 59.6988C23.9339 58.7757 23.1827 58.0273 22.256 58.0273C21.3294 58.0273 20.5781 58.7757 20.5781 59.6988C20.5781 60.622 21.3294 61.3704 22.256 61.3704Z" fill="#DCB996"/>
</svg>
