<svg width="27" height="24" viewBox="0 0 27 24" fill="none" xmlns="http://www.w3.org/2000/svg">
<g clip-path="url(#clip0_1016_18219)">
<path d="M26.5019 11.248L1.67188 11.248C1.26188 11.248 0.921875 11.588 0.921875 11.998C0.921875 12.408 1.26188 12.748 1.67188 12.748L26.5019 12.748C26.9119 12.748 27.2519 12.408 27.2519 11.998C27.2519 11.588 26.9119 11.248 26.5019 11.248Z" fill="#121418"/>
<path d="M7.25109 5.36251C7.06109 5.36251 6.87109 5.43251 6.72109 5.5825L0.651094 11.6525C0.361094 11.9425 0.361094 12.4225 0.651094 12.7125L6.72109 18.7825C7.01109 19.0725 7.49109 19.0725 7.78109 18.7825C8.07109 18.4925 8.07109 18.0125 7.78109 17.7225L2.24109 12.1825L7.7811 6.6425C8.0711 6.3525 8.0711 5.8725 7.7811 5.5825C7.6411 5.43251 7.44109 5.36251 7.25109 5.36251Z" fill="#121418"/>
</g>
<defs>
<clipPath id="clip0_1016_18219">
<rect width="24" height="27" fill="white" transform="matrix(4.37114e-08 -1 -1 -4.37114e-08 27 24)"/>
</clipPath>
</defs>
</svg>
