<svg width="16" height="16" viewBox="0 0 16 16" fill="none" xmlns="http://www.w3.org/2000/svg">
<g id="material-symbols:arrow-back-ios-new-rounded">
<path id="Vector" d="M8.20737 11.8417L5.10138 8.29551C5.06452 8.2533 5.03846 8.20756 5.02323 8.15831C5.00774 8.10906 5 8.05629 5 8C5 7.94371 5.00774 7.89094 5.02323 7.84169C5.03846 7.79244 5.06452 7.7467 5.10138 7.70449L8.20737 4.14776C8.29339 4.04925 8.40092 4 8.52995 4C8.65899 4 8.76959 4.05277 8.86175 4.15831C8.95392 4.26385 9 4.38698 9 4.5277C9 4.66843 8.95392 4.79156 8.86175 4.8971L6.15207 8L8.86175 11.1029C8.94777 11.2014 8.99078 11.3227 8.99078 11.4668C8.99078 11.6112 8.9447 11.7361 8.85253 11.8417C8.76037 11.9472 8.65284 12 8.52995 12C8.40707 12 8.29954 11.9472 8.20737 11.8417Z" fill="#121418"/>
</g>
</svg>
