<svg width="16" height="16" viewBox="0 0 16 16" fill="none" xmlns="http://www.w3.org/2000/svg">
<g id="material-symbols:arrow-back-ios-new-rounded">
<path id="Vector" d="M7.79263 11.8417L10.8986 8.29551C10.9355 8.2533 10.9615 8.20756 10.9768 8.15831C10.9923 8.10906 11 8.05629 11 8C11 7.94371 10.9923 7.89094 10.9768 7.84169C10.9615 7.79244 10.9355 7.7467 10.8986 7.70449L7.79263 4.14776C7.70661 4.04925 7.59908 4 7.47005 4C7.34101 4 7.23041 4.05277 7.13825 4.15831C7.04608 4.26385 7 4.38698 7 4.5277C7 4.66843 7.04608 4.79156 7.13825 4.8971L9.84793 8L7.13825 11.1029C7.05223 11.2014 7.00922 11.3227 7.00922 11.4668C7.00922 11.6112 7.0553 11.7361 7.14747 11.8417C7.23963 11.9472 7.34716 12 7.47005 12C7.59293 12 7.70046 11.9472 7.79263 11.8417Z" fill="#121418"/>
</g>
</svg>
