<svg width="27" height="24" viewBox="0 0 27 24" fill="none" xmlns="http://www.w3.org/2000/svg">
<g clip-path="url(#clip0_1018_18836)">
<path d="M0.498123 11.248L25.3281 11.248C25.7381 11.248 26.0781 11.588 26.0781 11.998C26.0781 12.408 25.7381 12.748 25.3281 12.748L0.498123 12.748C0.0881233 12.748 -0.251877 12.408 -0.251877 11.998C-0.251877 11.588 0.0881232 11.248 0.498123 11.248Z" fill="#121418"/>
<path d="M19.7489 5.36251C19.9389 5.36251 20.1289 5.43251 20.2789 5.5825L26.3489 11.6525C26.6389 11.9425 26.6389 12.4225 26.3489 12.7125L20.2789 18.7825C19.9889 19.0725 19.5089 19.0725 19.2189 18.7825C18.9289 18.4925 18.9289 18.0125 19.2189 17.7225L24.7589 12.1825L19.2189 6.6425C18.9289 6.3525 18.9289 5.8725 19.2189 5.5825C19.3589 5.43251 19.5589 5.36251 19.7489 5.36251Z" fill="#121418"/>
</g>
<defs>
<clipPath id="clip0_1018_18836">
<rect width="24" height="27" fill="white" transform="translate(0 24) rotate(-90)"/>
</clipPath>
</defs>
</svg>
