<svg width="56" height="56" viewBox="0 0 56 56" fill="none" xmlns="http://www.w3.org/2000/svg">
<rect width="56" height="56" rx="28" fill="#DCB996" fill-opacity="0.3"/>
<path d="M37.568 45.916H18.4346C14.2846 45.916 10.918 42.5493 10.918 38.3993V27.1827C10.918 23.0327 14.2846 19.666 18.4346 19.666H37.568C41.718 19.666 45.0846 23.0327 45.0846 27.1827V29.5827C45.0846 30.266 44.518 30.8327 43.8346 30.8327H40.468C39.8846 30.8327 39.3513 31.0494 38.968 31.4494L38.9513 31.466C38.4846 31.916 38.268 32.5326 38.318 33.166C38.418 34.266 39.468 35.1493 40.668 35.1493H43.8346C44.518 35.1493 45.0846 35.716 45.0846 36.3993V38.3826C45.0846 42.5493 41.718 45.916 37.568 45.916ZM18.4346 22.166C15.668 22.166 13.418 24.416 13.418 27.1827V38.3993C13.418 41.166 15.668 43.416 18.4346 43.416H37.568C40.3346 43.416 42.5846 41.166 42.5846 38.3993V37.666H40.668C38.1513 37.666 36.018 35.7993 35.818 33.3993C35.6846 32.0327 36.1846 30.6827 37.1846 29.6994C38.0513 28.816 39.218 28.3327 40.468 28.3327H42.5846V27.1827C42.5846 24.416 40.3346 22.166 37.568 22.166H18.4346Z" fill="#DCB996"/>
<path d="M12.168 29.934C11.4846 29.934 10.918 29.3673 10.918 28.684V21.0674C10.918 18.5841 12.4846 16.334 14.8013 15.4507L28.0346 10.4507C29.4013 9.93399 30.918 10.1174 32.1013 10.9507C33.3013 11.7841 34.0013 13.1341 34.0013 14.5841V20.9174C34.0013 21.6007 33.4346 22.1674 32.7513 22.1674C32.068 22.1674 31.5013 21.6007 31.5013 20.9174V14.5841C31.5013 13.9507 31.2013 13.3674 30.668 13.0007C30.1346 12.634 29.5013 12.5507 28.9013 12.784L15.668 17.784C14.318 18.3007 13.4013 19.6174 13.4013 21.0674V28.684C13.418 29.384 12.8513 29.934 12.168 29.934Z" fill="#DCB996"/>
<path d="M40.6681 37.6673C38.1514 37.6673 36.0181 35.8006 35.8181 33.4006C35.6848 32.0173 36.1848 30.6673 37.1848 29.684C38.0348 28.8173 39.2014 28.334 40.4514 28.334H43.9181C45.5681 28.384 46.8348 29.6839 46.8348 31.2839V34.7173C46.8348 36.3173 45.5681 37.6173 43.9681 37.6673H40.6681ZM43.8848 30.834H40.4681C39.8848 30.834 39.3514 31.0506 38.9681 31.4506C38.4848 31.9173 38.2514 32.5506 38.3181 33.1839C38.4181 34.2839 39.4681 35.1673 40.6681 35.1673H43.9348C44.1514 35.1673 44.3514 34.9673 44.3514 34.7173V31.2839C44.3514 31.0339 44.1514 30.8507 43.8848 30.834Z" fill="#DCB996"/>
<path d="M31.3346 29.25H19.668C18.9846 29.25 18.418 28.6833 18.418 28C18.418 27.3167 18.9846 26.75 19.668 26.75H31.3346C32.018 26.75 32.5846 27.3167 32.5846 28C32.5846 28.6833 32.018 29.25 31.3346 29.25Z" fill="#DCB996"/>
</svg>
