<svg width="20" height="20" viewBox="0 0 20 20" fill="none" xmlns="http://www.w3.org/2000/svg">
<path d="M7.89063 12.7333C7.73229 12.7333 7.57396 12.6749 7.44896 12.5499C6.76562 11.8666 6.39062 10.9583 6.39062 9.99993C6.39062 8.00827 8.00729 6.3916 9.99896 6.3916C10.9573 6.3916 11.8656 6.7666 12.549 7.44993C12.6656 7.5666 12.7323 7.72494 12.7323 7.8916C12.7323 8.05827 12.6656 8.2166 12.549 8.33327L8.33229 12.5499C8.20729 12.6749 8.04896 12.7333 7.89063 12.7333ZM9.99896 7.6416C8.69896 7.6416 7.64062 8.69993 7.64062 9.99993C7.64062 10.4166 7.74896 10.8166 7.94896 11.1666L11.1656 7.94993C10.8156 7.74993 10.4156 7.6416 9.99896 7.6416Z" fill="#121418"/>
<path d="M4.66849 15.4251C4.52682 15.4251 4.37682 15.3751 4.26016 15.2751C3.36849 14.5167 2.56849 13.5834 1.88516 12.5001C1.00182 11.1251 1.00182 8.8834 1.88516 7.50006C3.91849 4.31673 6.87682 2.4834 10.0018 2.4834C11.8352 2.4834 13.6435 3.11673 15.2268 4.3084C15.5018 4.51673 15.5602 4.9084 15.3518 5.1834C15.1435 5.4584 14.7518 5.51673 14.4768 5.3084C13.1102 4.27506 11.5602 3.7334 10.0018 3.7334C7.31016 3.7334 4.73516 5.35007 2.93516 8.17507C2.31016 9.15007 2.31016 10.8501 2.93516 11.8251C3.56016 12.8001 4.27682 13.6417 5.06849 14.3251C5.32682 14.5501 5.36016 14.9417 5.13516 15.2084C5.01849 15.3501 4.84349 15.4251 4.66849 15.4251Z" fill="#121418"/>
<path d="M9.99818 17.5166C8.88985 17.5166 7.80651 17.2916 6.76485 16.8499C6.44818 16.7166 6.29818 16.3499 6.43151 16.0333C6.56485 15.7166 6.93151 15.5666 7.24818 15.6999C8.13151 16.0749 9.05651 16.2666 9.98985 16.2666C12.6815 16.2666 15.2565 14.6499 17.0565 11.8249C17.6815 10.8499 17.6815 9.14992 17.0565 8.17492C16.7982 7.76658 16.5148 7.37492 16.2148 7.00825C15.9982 6.74158 16.0398 6.34992 16.3065 6.12492C16.5732 5.90825 16.9648 5.94158 17.1898 6.21658C17.5148 6.61658 17.8315 7.04992 18.1148 7.49992C18.9982 8.87492 18.9982 11.1166 18.1148 12.4999C16.0815 15.6833 13.1232 17.5166 9.99818 17.5166Z" fill="#121418"/>
<path d="M10.5737 13.5586C10.282 13.5586 10.0154 13.3503 9.95702 13.0503C9.89035 12.7086 10.1154 12.3836 10.457 12.3253C11.3737 12.1586 12.1404 11.392 12.307 10.4753C12.3737 10.1336 12.6987 9.91695 13.0403 9.97529C13.382 10.042 13.607 10.367 13.5404 10.7086C13.2737 12.1503 12.1237 13.292 10.6904 13.5586C10.6487 13.5503 10.6153 13.5586 10.5737 13.5586Z" fill="#121418"/>
<path d="M1.66589 18.9583C1.50755 18.9583 1.34922 18.8999 1.22422 18.7749C0.982552 18.5333 0.982552 18.1333 1.22422 17.8916L7.44922 11.6666C7.69089 11.4249 8.09089 11.4249 8.33255 11.6666C8.57422 11.9083 8.57422 12.3083 8.33255 12.5499L2.10755 18.7749C1.98255 18.8999 1.82422 18.9583 1.66589 18.9583Z" fill="#121418"/>
<path d="M12.1073 8.51686C11.949 8.51686 11.7906 8.45853 11.6656 8.33353C11.424 8.09186 11.424 7.69186 11.6656 7.4502L17.8906 1.2252C18.1323 0.983529 18.5323 0.983529 18.774 1.2252C19.0156 1.46686 19.0156 1.86686 18.774 2.10853L12.549 8.33353C12.424 8.45853 12.2656 8.51686 12.1073 8.51686Z" fill="#121418"/>
</svg>
