<svg width="48" height="15" viewBox="0 0 48 15" fill="none" xmlns="http://www.w3.org/2000/svg">
<g clip-path="url(#clip0_1029_20707)">
<path d="M24.8244 4.7756C24.7971 6.8568 26.7488 8.01813 28.2189 8.70867C29.7294 9.4171 30.2368 9.87144 30.2308 10.5051C30.2196 11.4746 29.0259 11.9026 27.909 11.9192C25.9603 11.9483 24.8272 11.4121 23.9265 11.0066L23.2245 14.1726C24.1283 14.574 25.8017 14.9241 27.537 14.9395C31.6104 14.9395 34.2754 13.0014 34.2898 9.9965C34.3057 6.18289 28.8171 5.9718 28.8546 4.26722C28.8675 3.75036 29.3792 3.19879 30.5004 3.05855C31.0554 2.98771 32.5875 2.93349 34.3245 3.70445L35.0062 0.641201C34.0721 0.31337 32.8716 -0.000546455 31.3768 -0.000546455C27.5428 -0.000546455 24.8462 1.96391 24.8244 4.7756ZM41.5571 0.263309C40.8133 0.263309 40.1865 0.6815 39.9067 1.32325L34.0881 14.7145H38.1585L38.9685 12.5568H43.9425L44.4124 14.7145H48L44.8693 0.263309H41.5571ZM42.1266 4.1671L43.3013 9.59367H40.0841L42.1266 4.1671ZM19.8892 0.263489L16.6807 14.7143H20.5596L23.7666 0.263128H19.8892M14.1512 0.263128L10.1139 10.0993L8.48081 1.73602C8.28919 0.802405 7.53244 0.263309 6.69206 0.263309H0.0924375L0 0.682947C1.35487 0.96632 2.89425 1.42337 3.82687 1.91241C4.39762 2.21114 4.56038 2.47228 4.74788 3.18216L7.84106 14.7145H11.94L18.2243 0.263309L14.1512 0.263128Z" fill="url(#paint0_linear_1029_20707)"/>
</g>
<defs>
<linearGradient id="paint0_linear_1029_20707" x1="22.0675" y1="15.2391" x2="22.4844" y2="-0.105313" gradientUnits="userSpaceOnUse">
<stop stop-color="#222357"/>
<stop offset="1" stop-color="#254AA5"/>
</linearGradient>
<clipPath id="clip0_1029_20707">
<rect width="48" height="15" fill="white"/>
</clipPath>
</defs>
</svg>
