<svg width="36" height="22" viewBox="0 0 36 22" fill="none" xmlns="http://www.w3.org/2000/svg">
<g id="logos:mastercard" clip-path="url(#clip0_1029_20730)">
<path id="Vector" d="M13.1211 2.35352H22.8453V19.6511H13.1211V2.35352Z" fill="#FF5F00"/>
<path id="Vector_2" d="M13.7375 11.002C13.7375 7.48752 15.4045 4.37022 17.9667 2.35314C16.0837 0.88624 13.7067 0 11.1136 0C4.97011 0 0 4.92026 0 11.002C0 17.0836 4.97011 22.004 11.1135 22.004C13.7066 22.004 16.0836 21.1177 17.9667 19.6507C15.4045 17.6642 13.7375 14.5165 13.7375 11.002Z" fill="#EB001B"/>
<path id="Vector_3" d="M35.9667 11.002C35.9667 17.0836 30.9966 22.004 24.8532 22.004C22.2601 22.004 19.8831 21.1177 18 19.6507C20.5931 17.6338 22.2293 14.5165 22.2293 11.002C22.2293 7.48752 20.5622 4.37022 18 2.35314C19.883 0.88624 22.2601 0 24.8532 0C30.9966 0 35.9667 4.95089 35.9667 11.002Z" fill="#F79E1B"/>
</g>
<defs>
<clipPath id="clip0_1029_20730">
<rect width="36" height="22" fill="white"/>
</clipPath>
</defs>
</svg>
