<svg width="24" height="24" viewBox="0 0 24 24" fill="none" xmlns="http://www.w3.org/2000/svg">
<path d="M12.0014 18.9969C10.2105 18.9969 8.41975 18.319 7.05105 16.9503C6.69289 16.5922 6.37309 16.1956 6.07889 15.7223C5.79747 15.2746 5.93817 14.6862 6.38587 14.4048C6.83357 14.1234 7.42202 14.2641 7.70343 14.7118C7.92089 15.07 8.15112 15.3514 8.40695 15.6072C10.3896 17.5899 13.6131 17.5899 15.5958 15.6072C16.3633 14.8397 16.8494 13.842 17.0156 12.7291C17.0924 12.2047 17.5784 11.8209 18.1029 11.9105C18.6273 11.9872 18.9855 12.4733 18.9216 12.9978C18.7041 14.52 18.0262 15.8886 16.9645 16.9631C15.583 18.319 13.7922 18.9969 12.0014 18.9969Z" fill="#292D32"/>
<path d="M6.03974 12.1021C5.98857 12.1021 5.95021 12.1021 5.89905 12.0893C5.3746 12.0125 5.00362 11.5264 5.08037 11.0019C5.29783 9.47975 5.97578 8.11109 7.03747 7.03661C9.76206 4.31202 14.2007 4.31202 16.9381 7.03661C17.2962 7.39477 17.616 7.79135 17.9102 8.27742C18.1917 8.72513 18.051 9.31349 17.6033 9.59491C17.1556 9.87632 16.5672 9.73563 16.2857 9.28792C16.0683 8.94255 15.838 8.64833 15.5822 8.3925C13.5995 6.40982 10.3761 6.40982 8.39337 8.3925C7.62588 9.15999 7.13982 10.1577 6.97353 11.2706C6.92236 11.7567 6.51302 12.1021 6.03974 12.1021Z" fill="#292D32"/>
<path d="M6.65468 19.585C6.13022 19.585 5.69531 19.1501 5.69531 18.6256V15.2103C5.69531 14.6859 6.13022 14.251 6.65468 14.251H10.07C10.5944 14.251 11.0293 14.6859 11.0293 15.2103C11.0293 15.7348 10.5944 16.1697 10.07 16.1697H7.61404V18.6256C7.61404 19.1501 7.19192 19.585 6.65468 19.585Z" fill="#292D32"/>
<path d="M17.3434 9.74907H13.9281C13.4037 9.74907 12.9688 9.31416 12.9688 8.78971C12.9688 8.26526 13.4037 7.83035 13.9281 7.83035H16.3841V5.3744C16.3841 4.84995 16.819 4.41504 17.3434 4.41504C17.8679 4.41504 18.3028 4.84995 18.3028 5.3744V8.78971C18.3028 9.32695 17.8679 9.74907 17.3434 9.74907Z" fill="#292D32"/>
</svg>
