<svg width="24" height="24" viewBox="0 0 24 24" fill="none" xmlns="http://www.w3.org/2000/svg">
<g opacity="0.8">
<path d="M3.75008 11.248L20.5801 11.248C20.9901 11.248 21.3301 11.588 21.3301 11.998C21.3301 12.408 20.9901 12.748 20.5801 12.748L3.75008 12.748C3.34008 12.748 3.00008 12.408 3.00008 11.998C3.00008 11.588 3.34008 11.248 3.75008 11.248Z" fill="#121418"/>
<path d="M14.997 5.36202C15.187 5.36202 15.377 5.43202 15.527 5.58202L21.597 11.652C21.887 11.942 21.887 12.422 21.597 12.712L15.527 18.782C15.237 19.072 14.757 19.072 14.467 18.782C14.177 18.492 14.177 18.012 14.467 17.722L20.007 12.182L14.467 6.64202C14.177 6.35202 14.177 5.87202 14.467 5.58202C14.607 5.43202 14.807 5.36202 14.997 5.36202Z" fill="#121418"/>
</g>
</svg>
