<svg width="40" height="40" viewBox="0 0 40 40" fill="none" xmlns="http://www.w3.org/2000/svg">
<path d="M10.8331 23.3332C10.4614 23.3332 10.1048 23.2765 9.74975 23.2249C9.86475 23.6115 9.98309 24.0049 10.1731 24.3582C10.3631 24.8715 10.6598 25.3165 10.9548 25.7649C11.2014 26.2499 11.6364 26.5782 11.9564 26.9932C12.2914 27.3965 12.7481 27.6649 13.1098 27.9999C13.4648 28.3499 13.9298 28.5249 14.2998 28.7715C14.6864 28.9932 15.0231 29.2382 15.3831 29.3549L16.2814 29.7249L17.0714 30.0532L16.2631 33.2832L15.2681 33.0432C14.9498 32.9632 14.5614 32.8699 14.1198 32.7582C13.6681 32.6749 13.1864 32.4465 12.6498 32.2382C12.1198 32.0015 11.5064 31.8415 10.9364 31.4615C10.3631 31.0982 9.70142 30.7949 9.11809 30.3082C8.55309 29.8065 7.87142 29.3715 7.36809 28.7332C6.81809 28.1365 6.27475 27.5099 5.85309 26.7965C5.36475 26.1165 5.03309 25.3699 4.68309 24.6315C4.36642 23.8932 4.11142 23.1382 3.90309 22.4049C3.50809 20.9349 3.33142 19.5382 3.26309 18.3432C3.20642 17.1465 3.23975 16.1515 3.30975 15.4315C3.33475 15.0915 3.38142 14.7615 3.41475 14.5332L3.45642 14.2532L3.49975 14.2632C3.79619 12.8785 4.47859 11.606 5.46803 10.5929C6.45746 9.57982 7.71349 8.86755 9.09082 8.53849C10.4681 8.20944 11.9105 8.27704 13.251 8.73348C14.5915 9.18992 15.7754 10.0165 16.6658 11.1177C17.5561 12.2189 18.1165 13.5497 18.2821 14.956C18.4477 16.3624 18.2118 17.7869 17.6016 19.0648C16.9915 20.3427 16.032 21.4218 14.8342 22.1771C13.6364 22.9325 12.2492 23.3333 10.8331 23.3332ZM29.1664 23.3332C28.7948 23.3332 28.4381 23.2765 28.0831 23.2249C28.1981 23.6115 28.3164 24.0049 28.5064 24.3582C28.6964 24.8715 28.9931 25.3165 29.2881 25.7649C29.5348 26.2499 29.9698 26.5782 30.2898 26.9932C30.6248 27.3965 31.0814 27.6649 31.4431 27.9999C31.7981 28.3499 32.2631 28.5249 32.6331 28.7715C33.0198 28.9932 33.3564 29.2382 33.7164 29.3549L34.6148 29.7249L35.4048 30.0532L34.5964 33.2832L33.6014 33.0432C33.2831 32.9632 32.8948 32.8699 32.4531 32.7582C32.0014 32.6749 31.5198 32.4465 30.9831 32.2382C30.4548 31.9999 29.8398 31.8415 29.2698 31.4599C28.6964 31.0965 28.0348 30.7932 27.4514 30.3065C26.8864 29.8049 26.2048 29.3699 25.7014 28.7332C25.1514 28.1365 24.6081 27.5099 24.1864 26.7965C23.6981 26.1165 23.3664 25.3699 23.0164 24.6315C22.6998 23.8932 22.4448 23.1382 22.2364 22.4049C21.8414 20.9349 21.6648 19.5382 21.5964 18.3432C21.5398 17.1465 21.5731 16.1515 21.6431 15.4315C21.6681 15.0915 21.7148 14.7615 21.7481 14.5332L21.7898 14.2532L21.8331 14.2632C22.1295 12.8785 22.8119 11.606 23.8014 10.5929C24.7908 9.57982 26.0468 8.86755 27.4242 8.53849C28.8015 8.20944 30.2438 8.27704 31.5843 8.73348C32.9249 9.18992 34.1088 10.0165 34.9991 11.1177C35.8894 12.2189 36.4498 13.5497 36.6154 14.956C36.7811 16.3624 36.5451 17.7869 35.935 19.0648C35.3248 20.3427 34.3653 21.4218 33.1675 22.1771C31.9697 22.9325 30.5825 23.3333 29.1664 23.3332Z" fill="#DCB996"/>
</svg>
